<svg version="1.1" id="Layer_1" xmlns="http://www.w3.org/2000/svg" xmlns:xlink="http://www.w3.org/1999/xlink" x="0px" y="0px"
	 width="100%" viewBox="0 0 500 500" enable-background="new 0 0 500 500" xml:space="preserve">
<path opacity="1.000000" stroke="none" 
	d="
M267.000000,501.000000 
	C178.000015,501.000000 89.500046,501.000000 1.000047,501.000000 
	C1.000032,334.333405 1.000032,167.666794 1.000016,1.000137 
	C167.666565,1.000091 334.333130,1.000091 500.999756,1.000046 
	C500.999847,167.666519 500.999847,334.333038 500.999939,500.999786 
	C423.166656,501.000000 345.333344,501.000000 267.000000,501.000000 
M102.022202,255.591629 
	C102.329277,263.707214 102.151215,271.876007 103.034500,279.928375 
	C105.670631,303.960388 114.281242,325.744568 128.224197,345.550140 
	C136.897049,357.869659 146.940460,368.974854 158.447815,378.464081 
	C183.907578,399.458649 214.195923,410.969055 245.310043,420.482208 
	C247.999924,421.304626 251.488586,421.283081 254.101364,420.305054 
	C272.411743,413.450806 290.841370,406.818176 308.741364,398.990662 
	C328.164185,390.497192 344.344635,376.932373 358.590820,361.553101 
	C374.225067,344.675354 385.265686,324.847351 391.369385,302.422058 
	C397.564117,279.662231 399.771973,256.863251 393.454803,233.745651 
	C392.766541,231.227066 391.954895,228.482361 392.289246,225.988480 
	C393.856842,214.294800 393.492157,202.805634 389.330597,191.681778 
	C386.277191,183.519943 382.847656,175.498810 379.794983,167.933502 
	C383.988953,163.089661 388.349365,158.552063 392.141724,153.581100 
	C404.004639,138.031494 408.989105,120.390968 408.065247,100.856552 
	C407.545898,89.875641 402.099274,86.613899 392.081238,90.812088 
	C382.359985,94.885910 372.273163,98.270607 362.091187,101.006210 
	C353.351562,103.354301 344.290283,104.658142 335.294678,105.841919 
	C330.055328,106.531395 324.931458,107.840698 319.346954,104.900627 
	C310.896057,100.451515 301.911926,96.719208 292.772736,93.935318 
	C273.975433,88.209473 254.811020,85.351120 234.971039,87.875580 
	C214.879257,90.432083 195.796738,95.621002 178.175766,105.812134 
	C176.567795,106.742104 174.293259,107.179321 172.449982,106.933304 
	C162.143539,105.557716 151.666046,104.712791 141.645020,102.137665 
	C128.866486,98.853935 116.428741,94.206612 103.920753,89.923203 
	C97.698700,87.792435 92.635086,89.745598 92.230797,95.629715 
	C91.718559,103.084892 91.435150,110.690018 92.317360,118.079536 
	C94.304909,134.727417 101.368118,149.125824 113.388725,161.021133 
	C117.499252,165.088806 121.569771,169.294571 116.110832,175.497833 
	C114.428329,177.409744 113.723755,180.218246 112.704002,182.671341 
	C107.207283,195.894180 104.294807,209.458221 106.843925,223.873703 
	C107.255127,226.199097 106.447052,228.771881 106.043076,231.203812 
	C104.745308,239.016434 103.372795,246.816620 102.022202,255.591629 
z"/>
<path fill="#033734" opacity="1.000000" stroke="none" 
	d="
M102.025665,255.106628 
	C103.372795,246.816620 104.745308,239.016434 106.043076,231.203812 
	C106.447052,228.771881 107.255127,226.199097 106.843925,223.873703 
	C104.294807,209.458221 107.207283,195.894180 112.704002,182.671341 
	C113.723755,180.218246 114.428329,177.409744 116.110832,175.497833 
	C121.569771,169.294571 117.499252,165.088806 113.388725,161.021133 
	C101.368118,149.125824 94.304909,134.727417 92.317360,118.079536 
	C91.435150,110.690018 91.718559,103.084892 92.230797,95.629715 
	C92.635086,89.745598 97.698700,87.792435 103.920753,89.923203 
	C116.428741,94.206612 128.866486,98.853935 141.645020,102.137665 
	C151.666046,104.712791 162.143539,105.557716 172.449982,106.933304 
	C174.293259,107.179321 176.567795,106.742104 178.175766,105.812134 
	C195.796738,95.621002 214.879257,90.432083 234.971039,87.875580 
	C254.811020,85.351120 273.975433,88.209473 292.772736,93.935318 
	C301.911926,96.719208 310.896057,100.451515 319.346954,104.900627 
	C324.931458,107.840698 330.055328,106.531395 335.294678,105.841919 
	C344.290283,104.658142 353.351562,103.354301 362.091187,101.006210 
	C372.273163,98.270607 382.359985,94.885910 392.081238,90.812088 
	C402.099274,86.613899 407.545898,89.875641 408.065247,100.856552 
	C408.989105,120.390968 404.004639,138.031494 392.141724,153.581100 
	C388.349365,158.552063 383.988953,163.089661 379.794983,167.933502 
	C382.847656,175.498810 386.277191,183.519943 389.330597,191.681778 
	C393.492157,202.805634 393.856842,214.294800 392.289246,225.988480 
	C391.954895,228.482361 392.766541,231.227066 393.454803,233.745651 
	C399.771973,256.863251 397.564117,279.662231 391.369385,302.422058 
	C385.265686,324.847351 374.225067,344.675354 358.590820,361.553101 
	C344.344635,376.932373 328.164185,390.497192 308.741364,398.990662 
	C290.841370,406.818176 272.411743,413.450806 254.101364,420.305054 
	C251.488586,421.283081 247.999924,421.304626 245.310043,420.482208 
	C214.195923,410.969055 183.907578,399.458649 158.447815,378.464081 
	C146.940460,368.974854 136.897049,357.869659 128.224197,345.550140 
	C114.281242,325.744568 105.670631,303.960388 103.034500,279.928375 
	C102.151215,271.876007 102.329277,263.707214 102.025665,255.106628 
M291.985809,317.986267 
	C291.985809,317.986267 291.949371,317.970886 291.470978,318.118988 
	C291.317261,318.403564 291.163513,318.688110 290.978241,318.979767 
	C290.978241,318.979767 290.973206,319.011658 290.505737,319.150238 
	C290.209778,319.344238 290.055298,319.618042 289.983917,319.984680 
	C289.983917,319.984680 289.972687,320.043427 289.513123,320.176178 
	C289.218903,320.366028 289.071869,320.636047 289.009918,321.012390 
	C289.009918,321.012390 288.992523,321.077515 288.548889,321.223724 
	C288.275238,321.421265 288.135101,321.688812 287.585205,322.429260 
	C284.635345,326.209961 281.465454,329.841187 278.776672,333.799225 
	C270.589752,345.850708 264.093140,358.716492 261.459442,373.197296 
	C259.758636,382.548950 258.424133,391.967163 256.779694,402.268738 
	C258.576660,401.438660 259.234589,401.278625 259.710724,400.893707 
	C271.068939,391.711487 283.015594,383.145477 293.575867,373.119751 
	C303.768311,363.443237 313.424347,352.906067 321.650909,341.541656 
	C329.165741,331.160553 334.451141,319.165558 341.481293,308.100647 
	C341.678558,310.338043 342.149231,312.592010 342.014893,314.809296 
	C341.753265,319.126495 342.931885,319.926666 346.937622,318.893707 
	C348.753723,318.425354 350.991058,319.590515 352.932861,320.703369 
	C351.977173,322.804596 351.021484,324.905853 349.463531,327.333282 
	C345.972412,333.350647 342.987579,339.741394 338.883423,345.306671 
	C330.660797,356.456665 321.826019,367.155212 313.243958,378.040131 
	C313.321289,378.263733 313.398621,378.487335 313.475952,378.710938 
	C318.328003,374.987640 323.180084,371.264343 328.678162,367.200592 
	C331.842377,364.532013 335.006592,361.863403 338.155212,359.097351 
	C338.155212,359.097351 338.107574,359.183777 338.633545,359.024475 
	C338.821411,358.721802 339.009277,358.419098 339.089478,358.121124 
	C339.089478,358.121124 339.115265,358.225739 339.670166,358.113068 
	C340.049133,357.716125 340.428101,357.319183 340.925842,356.928284 
	C340.925842,356.928284 340.923828,356.809448 341.434570,356.572906 
	C341.713318,356.101196 341.992065,355.629486 342.164581,355.130432 
	C342.164581,355.130432 342.167145,355.240112 342.693176,355.077148 
	C342.874512,354.770660 343.055878,354.464172 343.149384,354.131836 
	C343.149384,354.131836 343.152161,354.223358 343.682953,354.034119 
	C343.866699,353.713257 344.050476,353.392365 344.718750,352.620544 
	C345.554657,351.406708 346.176788,349.942108 347.260132,349.018463 
	C356.282959,341.325653 362.271729,331.460876 367.455872,321.029144 
	C375.286835,305.271484 380.229736,288.715698 381.082581,270.120728 
	C381.082581,266.657532 381.082581,263.194336 381.082581,259.731140 
	C377.016235,262.654053 374.539307,266.383392 371.140320,268.833740 
	C365.647705,272.793365 364.772980,278.051758 364.756622,284.147552 
	C364.756622,284.147552 364.433380,284.160553 363.662262,283.971527 
	C362.811066,282.859711 362.032623,281.681244 361.090210,280.653046 
	C359.921814,279.378326 358.551819,277.199188 357.387970,277.273590 
	C355.782501,277.376190 354.256561,279.178528 352.754211,280.328156 
	C350.707642,281.894226 348.715485,283.531372 345.997742,285.152893 
	C339.646118,287.522156 333.135498,289.540710 326.975861,292.333435 
	C314.007690,298.213104 302.047943,305.631317 292.996368,316.994141 
	C292.996368,316.994141 292.975983,316.988098 292.483002,317.110931 
	C292.312195,317.390564 292.141388,317.670166 291.985809,317.986267 
M184.923584,376.440369 
	C184.741196,376.163147 184.499634,375.954407 183.854034,375.240540 
	C174.422379,362.657837 164.781235,350.224548 155.654129,337.424652 
	C151.557297,331.679260 148.488922,325.200531 144.405182,318.549622 
	C141.201492,307.404572 137.997818,296.259552 134.921036,284.313477 
	C134.710419,272.056854 124.336716,266.759155 118.139290,258.601868 
	C117.703957,258.741425 117.268623,258.881012 116.833298,259.020569 
	C117.185318,262.675873 117.537338,266.331207 117.814041,270.903900 
	C118.010155,274.057159 117.986008,277.242279 118.436241,280.358826 
	C123.218620,313.462280 139.538361,340.203522 163.978821,362.392548 
	C165.338196,363.626740 167.273117,364.226990 168.989716,365.066803 
	C168.989716,365.066803 168.934036,365.017456 168.910049,365.709869 
	C169.269745,365.992126 169.629440,366.274384 170.199280,367.139343 
	C174.680695,370.215057 179.162109,373.290771 183.972946,376.727905 
	C184.227966,376.943695 184.519470,377.083282 185.019836,377.491364 
	C185.225739,377.453094 185.431656,377.414795 185.637558,377.376526 
	C185.458344,377.214020 185.279129,377.051514 184.923584,376.440369 
M390.170441,122.319221 
	C390.822510,118.979149 391.474579,115.639069 392.126648,112.298996 
	C388.646851,115.734283 386.281982,119.739891 383.228333,123.124001 
	C371.814148,135.773621 357.042847,142.586761 340.924988,147.122665 
	C331.542633,149.763077 322.326965,152.995880 312.302704,156.203461 
	C293.995270,160.264236 280.636108,171.281525 270.950409,186.757797 
	C252.733124,215.866318 262.001862,254.341141 290.644012,270.080933 
	C321.585297,287.084167 361.519318,270.941650 374.125397,236.335312 
	C384.406067,208.112686 374.311676,179.485443 348.761292,161.995270 
	C350.360382,161.616043 351.940552,161.086029 353.561707,160.882248 
	C363.479401,159.635651 371.180969,154.635651 377.476654,147.094528 
	C383.403381,139.995346 387.708527,132.088211 390.170441,122.319221 
M108.868134,122.734810 
	C109.423309,124.473244 109.835999,126.273170 110.555634,127.940628 
	C118.007919,145.208252 128.228058,159.310547 148.976685,161.295837 
	C149.565353,161.352158 150.102066,161.951401 150.059814,162.826355 
	C141.399994,167.419006 135.193939,174.619492 130.075623,182.654068 
	C111.656067,211.568542 121.653847,253.585159 154.281647,269.908966 
	C185.580719,285.567993 218.211731,274.142426 232.287872,242.169937 
	C242.711960,218.492737 236.018692,191.047699 216.065094,172.012268 
	C207.597488,163.934311 197.540771,158.587769 185.552307,155.540955 
	C177.663895,153.036911 169.832123,150.334000 161.875961,148.067871 
	C141.748581,142.335068 122.937332,134.595520 110.592575,116.312279 
	C109.843979,115.203560 108.609138,114.423164 107.600548,113.489998 
	C107.289948,113.664085 106.979347,113.838181 106.668747,114.012276 
	C107.366028,116.662819 108.063309,119.313362 108.868134,122.734810 
M155.736588,298.955933 
	C159.018967,306.934723 161.563614,315.322845 165.721573,322.815765 
	C178.358902,345.588989 195.222763,365.071014 214.868073,382.057068 
	C222.936325,389.033142 231.789612,395.101196 240.285797,401.582306 
	C240.746979,401.286499 241.208160,400.990692 241.669342,400.694885 
	C240.766190,393.469971 240.389755,386.131714 238.864105,379.040771 
	C233.653915,354.824768 223.865280,332.941345 204.836044,315.327271 
	C191.318069,299.338287 172.935135,291.954315 152.368927,285.793945 
	C153.550568,290.439453 154.539719,294.328186 155.736588,298.955933 
M253.820602,165.242676 
	C249.854355,171.005798 248.444717,171.025513 244.878220,165.072037 
	C232.742401,144.814087 215.252808,131.021439 192.463104,125.661072 
	C174.400375,121.412544 155.728287,119.750183 137.318466,116.995071 
	C136.367096,116.852692 135.337463,117.233337 134.344269,117.370476 
	C134.238220,117.782608 134.132156,118.194740 134.026093,118.606873 
	C141.222961,122.333687 148.134048,126.844620 155.686035,129.597122 
	C166.103470,133.393997 177.137253,135.466476 187.671387,138.983398 
	C210.745697,146.687027 230.307953,159.220795 242.260376,181.314575 
	C245.009933,186.397079 247.106903,191.832611 249.663116,197.455276 
	C252.746597,186.259094 258.088226,176.629272 265.277130,168.288513 
	C279.671600,151.587769 298.405121,141.831284 319.629547,136.910355 
	C334.791443,133.395035 349.658264,129.442154 362.349487,119.881050 
	C363.281219,119.179123 364.072479,118.290741 365.929871,116.552277 
	C348.540009,118.885376 332.459473,120.411293 316.629913,123.308395 
	C290.111816,128.161697 268.385406,140.870789 253.820602,165.242676 
M275.842712,310.356110 
	C282.389221,302.703552 288.935760,295.051025 294.298309,288.782471 
	C286.652893,284.387970 276.538574,278.574371 266.074951,272.559998 
	C264.976593,274.173584 263.443054,276.517273 261.815063,278.793427 
	C260.079803,281.219574 258.304016,283.620117 256.460815,285.964935 
	C250.356445,293.730499 248.197433,293.722046 242.199661,285.976135 
	C241.692764,285.321472 241.272293,284.600403 240.773285,283.939148 
	C237.729813,279.905945 234.675232,275.881104 232.548416,273.073364 
	C221.837662,278.976471 211.802505,284.507233 203.102737,289.302002 
	C211.884796,299.273376 222.375198,309.213593 230.401123,320.853119 
	C238.383148,332.428955 243.888840,345.712311 250.101379,357.526154 
	C255.481461,341.351654 263.108795,324.866547 275.842712,310.356110 
M248.111801,143.053986 
	C250.515457,146.057877 251.064926,142.704391 251.903305,141.749664 
	C259.994324,132.535675 268.887909,124.362198 280.318512,119.446846 
	C285.884583,117.053345 291.548096,114.886330 297.946930,112.301987 
	C268.199921,100.110924 238.845886,98.926659 209.079559,108.943855 
	C207.258759,109.556602 205.726120,111.025597 203.049850,112.744667 
	C221.428818,118.959732 236.402023,128.092758 248.111801,143.053986 
M243.173141,254.702560 
	C243.076843,256.214478 242.419861,257.991852 242.987015,259.189606 
	C244.853683,263.131897 247.163818,266.864197 249.415604,270.876709 
	C251.763214,266.751556 253.956924,263.061829 255.950165,259.266846 
	C256.393372,258.422974 256.520203,257.024292 256.128204,256.195221 
	C254.011139,251.717865 251.684921,247.339401 249.282028,242.635559 
	C247.253418,246.702667 245.415970,250.386520 243.173141,254.702560 
M106.521378,111.451874 
	C106.521378,111.451874 106.565536,111.553154 106.521378,111.451874 
z"/>
<path fill="#FCFDFD" opacity="1.000000" stroke="none" 
	d="
M348.019836,162.301056 
	C374.311676,179.485443 384.406067,208.112686 374.125397,236.335312 
	C361.519318,270.941650 321.585297,287.084167 290.644012,270.080933 
	C262.001862,254.341141 252.733124,215.866318 270.950409,186.757797 
	C280.636108,171.281525 293.995270,160.264236 313.126709,156.165268 
	C319.567413,156.293594 325.184082,156.460114 331.137146,156.782394 
	C336.988983,158.725784 342.504395,160.513428 348.019836,162.301056 
M323.125824,183.037018 
	C315.032196,180.905151 307.336243,181.897690 300.031189,185.972794 
	C288.509583,192.400070 281.985077,205.844009 284.080383,218.843536 
	C286.132874,231.577362 295.721863,241.604904 308.318329,244.190002 
	C321.450775,246.885101 334.758331,241.593781 341.342163,230.098450 
	C350.114563,214.781876 346.825134,191.959290 323.125824,183.037018 
z"/>
<path fill="#FCFDFD" opacity="1.000000" stroke="none" 
	d="
M186.055679,156.056168 
	C197.540771,158.587769 207.597488,163.934311 216.065094,172.012268 
	C236.018692,191.047699 242.711960,218.492737 232.287872,242.169937 
	C218.211731,274.142426 185.580719,285.567993 154.281647,269.908966 
	C121.653847,253.585159 111.656067,211.568542 130.075623,182.654068 
	C135.193939,174.619492 141.399994,167.419006 150.628372,162.521545 
	C157.148148,160.156799 163.099350,158.096878 169.512299,156.078827 
	C175.334564,156.099182 180.695129,156.077667 186.055679,156.056168 
M211.376358,228.722656 
	C221.102051,208.120697 210.702438,186.192276 189.385086,182.352310 
	C175.549438,179.860046 161.981201,187.132690 155.952560,200.272293 
	C150.005386,213.234314 153.496109,230.307541 164.388733,238.348801 
	C181.365524,250.881577 202.655014,244.885773 211.376358,228.722656 
z"/>
<path fill="#02E2A1" opacity="1.000000" stroke="none" 
	d="
M340.719086,307.881805 
	C334.451141,319.165558 329.165741,331.160553 321.650909,341.541656 
	C313.424347,352.906067 303.768311,363.443237 293.575867,373.119751 
	C283.015594,383.145477 271.068939,391.711487 259.710724,400.893707 
	C259.234589,401.278625 258.576660,401.438660 256.779694,402.268738 
	C258.424133,391.967163 259.758636,382.548950 261.459442,373.197296 
	C264.093140,358.716492 270.589752,345.850708 278.776672,333.799225 
	C281.465454,329.841187 284.635345,326.209961 288.064514,322.136536 
	C288.806213,321.654449 288.955780,321.399017 288.992523,321.077515 
	C288.992523,321.077515 289.009918,321.012390 289.254608,320.912415 
	C289.768707,320.624847 289.926514,320.368500 289.972687,320.043427 
	C289.972687,320.043427 289.983917,319.984680 290.234314,319.892456 
	C290.765442,319.610443 290.928284,319.347595 290.973206,319.011658 
	C290.973206,319.011658 290.978241,318.979767 291.220337,318.885010 
	C291.747803,318.590271 291.910126,318.317139 291.949371,317.970886 
	C291.949371,317.970886 291.985809,317.986267 292.214111,317.890503 
	C292.746094,317.609161 292.923950,317.340271 292.975983,316.988098 
	C292.975983,316.988098 292.996368,316.994141 293.358215,317.006622 
	C295.005554,316.330597 296.387268,315.776123 297.561920,314.933167 
	C311.500702,304.930389 327.437042,300.130432 343.998596,297.376038 
	C342.890717,301.132263 341.804901,304.507019 340.719086,307.881805 
z"/>
<path fill="#02E39E" opacity="1.000000" stroke="none" 
	d="
M205.039612,315.969513 
	C223.865280,332.941345 233.653915,354.824768 238.864105,379.040771 
	C240.389755,386.131714 240.766190,393.469971 241.669342,400.694885 
	C241.208160,400.990692 240.746979,401.286499 240.285797,401.582306 
	C231.789612,395.101196 222.936325,389.033142 214.868073,382.057068 
	C195.222763,365.071014 178.358902,345.588989 165.721573,322.815765 
	C161.563614,315.322845 159.018967,306.934723 155.940033,298.312683 
	C156.927841,297.484680 157.807343,296.969513 158.482590,297.163879 
	C172.624603,301.234833 186.882065,305.014252 199.299652,313.453339 
	C200.998383,314.607819 203.115967,315.145996 205.039612,315.969513 
z"/>
<path fill="#F9FBFB" opacity="1.000000" stroke="none" 
	d="
M253.984985,164.923340 
	C268.385406,140.870789 290.111816,128.161697 316.629913,123.308395 
	C332.459473,120.411293 348.540009,118.885376 365.929871,116.552277 
	C364.072479,118.290741 363.281219,119.179123 362.349487,119.881050 
	C349.658264,129.442154 334.791443,133.395035 319.629547,136.910355 
	C298.405121,141.831284 279.671600,151.587769 265.277130,168.288513 
	C258.088226,176.629272 252.746597,186.259094 249.663116,197.455276 
	C247.106903,191.832611 245.009933,186.397079 242.260376,181.314575 
	C230.307953,159.220795 210.745697,146.687027 187.671387,138.983398 
	C177.137253,135.466476 166.103470,133.393997 155.686035,129.597122 
	C148.134048,126.844620 141.222961,122.333687 134.026093,118.606873 
	C134.132156,118.194740 134.238220,117.782608 134.344269,117.370476 
	C135.337463,117.233337 136.367096,116.852692 137.318466,116.995071 
	C155.728287,119.750183 174.400375,121.412544 192.463104,125.661072 
	C215.252808,131.021439 232.742401,144.814087 244.878220,165.072037 
	C248.444717,171.025513 249.854355,171.005798 253.984985,164.923340 
z"/>
<path fill="#FCFDFD" opacity="1.000000" stroke="none" 
	d="
M275.604370,310.617676 
	C263.108795,324.866547 255.481461,341.351654 250.101379,357.526154 
	C243.888840,345.712311 238.383148,332.428955 230.401123,320.853119 
	C222.375198,309.213593 211.884796,299.273376 203.102737,289.302002 
	C211.802505,284.507233 221.837662,278.976471 232.548416,273.073364 
	C234.675232,275.881104 237.729813,279.905945 240.773285,283.939148 
	C241.272293,284.600403 241.692764,285.321472 242.199661,285.976135 
	C248.197433,293.722046 250.356445,293.730499 256.460815,285.964935 
	C258.304016,283.620117 260.079803,281.219574 261.815063,278.793427 
	C263.443054,276.517273 264.976593,274.173584 266.074951,272.559998 
	C276.538574,278.574371 286.652893,284.387970 294.298309,288.782471 
	C288.935760,295.051025 282.389221,302.703552 275.604370,310.617676 
z"/>
<path fill="#03E2A1" opacity="1.000000" stroke="none" 
	d="
M247.914276,142.792282 
	C236.402023,128.092758 221.428818,118.959732 203.049850,112.744667 
	C205.726120,111.025597 207.258759,109.556602 209.079559,108.943855 
	C238.845886,98.926659 268.199921,100.110924 297.946930,112.301987 
	C291.548096,114.886330 285.884583,117.053345 280.318512,119.446846 
	C268.887909,124.362198 259.994324,132.535675 251.903305,141.749664 
	C251.064926,142.704391 250.515457,146.057877 247.914276,142.792282 
z"/>
<path fill="#04DD9C" opacity="1.000000" stroke="none" 
	d="
M168.940155,365.122314 
	C167.273117,364.226990 165.338196,363.626740 163.978821,362.392548 
	C139.538361,340.203522 123.218620,313.462280 118.436241,280.358826 
	C117.986008,277.242279 118.010155,274.057159 118.161377,270.588806 
	C123.937180,275.220612 129.365646,280.167572 134.794128,285.114502 
	C137.997818,296.259552 141.201492,307.404572 144.684875,319.190369 
	C149.799820,334.773529 157.367218,348.282776 166.496124,360.981537 
	C167.427841,362.277649 168.130951,363.738129 168.940155,365.122314 
z"/>
<path fill="#03DCA0" opacity="1.000000" stroke="none" 
	d="
M380.955719,271.030670 
	C380.229736,288.715698 375.286835,305.271484 367.455872,321.029144 
	C362.271729,331.460876 356.282959,341.325653 347.260132,349.018463 
	C346.176788,349.942108 345.554657,351.406708 344.222900,352.959412 
	C343.535431,353.606628 343.343781,353.915009 343.152161,354.223358 
	C343.152161,354.223358 343.149384,354.131836 342.935394,354.234680 
	C342.536652,354.638428 342.351898,354.939270 342.167175,355.240112 
	C342.167145,355.240112 342.164581,355.130432 341.944031,355.239502 
	C341.456970,355.835541 341.190399,356.322479 340.923828,356.809448 
	C340.923828,356.809448 340.925842,356.928284 340.587952,356.986267 
	C339.871796,357.438049 339.493530,357.831879 339.115265,358.225739 
	C339.115265,358.225739 339.089478,358.121124 338.892365,358.216583 
	C338.499359,358.602631 338.303467,358.893219 338.107574,359.183777 
	C338.107574,359.183777 338.155212,359.097351 337.826965,359.055237 
	C336.645935,358.670685 335.793121,358.328217 335.085083,357.670532 
	C339.373566,350.089539 343.676910,342.907867 347.573792,335.511993 
	C348.923462,332.950500 349.264221,329.857391 350.065796,327.007111 
	C351.021484,324.905853 351.977173,322.804596 353.226990,320.102783 
	C357.158569,307.721680 360.795990,295.941132 364.433411,284.160553 
	C364.433380,284.160553 364.756622,284.147552 365.250397,284.043365 
	C370.814667,279.636322 375.885193,275.333496 380.955719,271.030670 
z"/>
<path fill="#05DC9D" opacity="1.000000" stroke="none" 
	d="
M169.050568,156.036957 
	C163.099350,158.096878 157.148148,160.156799 150.929962,162.257111 
	C150.102066,161.951401 149.565353,161.352158 148.976685,161.295837 
	C128.228058,159.310547 118.007919,145.208252 110.555634,127.940628 
	C109.835999,126.273170 109.423309,124.473244 109.140678,122.480385 
	C119.471840,133.064636 131.177780,141.670288 144.834473,147.341492 
	C152.745850,150.626862 160.968170,153.163422 169.050568,156.036957 
z"/>
<path fill="#04DBA1" opacity="1.000000" stroke="none" 
	d="
M348.390564,162.148163 
	C342.504395,160.513428 336.988983,158.725784 331.333679,156.430435 
	C332.862061,155.262665 334.486115,154.442535 336.205475,153.967438 
	C352.339935,149.509277 367.250793,142.666626 380.042480,131.656174 
	C383.342255,128.815903 386.603088,125.930405 389.881805,123.065674 
	C387.708527,132.088211 383.403381,139.995346 377.476654,147.094528 
	C371.180969,154.635651 363.479401,159.635651 353.561707,160.882248 
	C351.940552,161.086029 350.360382,161.616043 348.390564,162.148163 
z"/>
<path fill="#013B37" opacity="1.000000" stroke="none" 
	d="
M364.047852,284.066040 
	C360.795990,295.941132 357.158569,307.721680 353.279236,319.758453 
	C350.991058,319.590515 348.753723,318.425354 346.937622,318.893707 
	C342.931885,319.926666 341.753265,319.126495 342.014893,314.809296 
	C342.149231,312.592010 341.678558,310.338043 341.100189,307.991211 
	C341.804901,304.507019 342.890717,301.132263 344.161957,297.028076 
	C345.131561,292.578430 345.915771,288.858246 346.699982,285.138031 
	C348.715485,283.531372 350.707642,281.894226 352.754211,280.328156 
	C354.256561,279.178528 355.782501,277.376190 357.387970,277.273590 
	C358.551819,277.199188 359.921814,279.378326 361.090210,280.653046 
	C362.032623,281.681244 362.811066,282.859711 364.047852,284.066040 
z"/>
<path fill="#06A178" opacity="1.000000" stroke="none" 
	d="
M390.026123,122.692451 
	C386.603088,125.930405 383.342255,128.815903 380.042480,131.656174 
	C367.250793,142.666626 352.339935,149.509277 336.205475,153.967438 
	C334.486115,154.442535 332.862061,155.262665 330.997253,156.274673 
	C325.184082,156.460114 319.567413,156.293594 313.493530,156.044617 
	C322.326965,152.995880 331.542633,149.763077 340.924988,147.122665 
	C357.042847,142.586761 371.814148,135.773621 383.228333,123.124001 
	C386.281982,119.739891 388.646851,115.734283 392.126648,112.298996 
	C391.474579,115.639069 390.822510,118.979149 390.026123,122.692451 
z"/>
<path fill="#06A477" opacity="1.000000" stroke="none" 
	d="
M169.512299,156.078827 
	C160.968170,153.163422 152.745850,150.626862 144.834473,147.341492 
	C131.177780,141.670288 119.471840,133.064636 109.086906,122.094933 
	C108.063309,119.313362 107.366028,116.662819 106.668747,114.012276 
	C106.979347,113.838181 107.289948,113.664085 107.600548,113.489998 
	C108.609138,114.423164 109.843979,115.203560 110.592575,116.312279 
	C122.937332,134.595520 141.748581,142.335068 161.875961,148.067871 
	C169.832123,150.334000 177.663895,153.036911 185.803986,155.798553 
	C180.695129,156.077667 175.334564,156.099182 169.512299,156.078827 
z"/>
<path fill="#05A578" opacity="1.000000" stroke="none" 
	d="
M346.348877,285.145447 
	C345.915771,288.858246 345.131561,292.578430 344.183990,296.646637 
	C327.437042,300.130432 311.500702,304.930389 297.561920,314.933167 
	C296.387268,315.776123 295.005554,316.330597 293.355042,316.996307 
	C302.047943,305.631317 314.007690,298.213104 326.975861,292.333435 
	C333.135498,289.540710 339.646118,287.522156 346.348877,285.145447 
z"/>
<path fill="#06A37B" opacity="1.000000" stroke="none" 
	d="
M204.937836,315.648376 
	C203.115967,315.145996 200.998383,314.607819 199.299652,313.453339 
	C186.882065,305.014252 172.624603,301.234833 158.482590,297.163879 
	C157.807343,296.969513 156.927841,297.484680 155.836166,297.943176 
	C154.539719,294.328186 153.550568,290.439453 152.368927,285.793945 
	C172.935135,291.954315 191.318069,299.338287 204.937836,315.648376 
z"/>
<path fill="#099D75" opacity="1.000000" stroke="none" 
	d="
M168.964935,365.094543 
	C168.130951,363.738129 167.427841,362.277649 166.496124,360.981537 
	C157.367218,348.282776 149.799820,334.773529 144.959213,319.442841 
	C148.488922,325.200531 151.557297,331.679260 155.654129,337.424652 
	C164.781235,350.224548 174.422379,362.657837 183.886551,375.664337 
	C183.919067,376.088135 183.643524,376.366455 183.643524,376.366455 
	C179.162109,373.290771 174.680695,370.215057 169.999847,366.537231 
	C169.511627,365.629242 169.222839,365.323334 168.934036,365.017456 
	C168.934036,365.017456 168.989716,365.066803 168.964935,365.094543 
z"/>
<path fill="#F4F8F8" opacity="1.000000" stroke="none" 
	d="
M243.375839,254.386459 
	C245.415970,250.386520 247.253418,246.702667 249.282028,242.635559 
	C251.684921,247.339401 254.011139,251.717865 256.128204,256.195221 
	C256.520203,257.024292 256.393372,258.422974 255.950165,259.266846 
	C253.956924,263.061829 251.763214,266.751556 249.415604,270.876709 
	C247.163818,266.864197 244.853683,263.131897 242.987015,259.189606 
	C242.419861,257.991852 243.076843,256.214478 243.375839,254.386459 
z"/>
<path fill="#079C75" opacity="1.000000" stroke="none" 
	d="
M349.764679,327.170197 
	C349.264221,329.857391 348.923462,332.950500 347.573792,335.511993 
	C343.676910,342.907867 339.373566,350.089539 334.803101,357.843445 
	C332.261627,361.401367 330.146881,364.471222 328.032135,367.541046 
	C323.180084,371.264343 318.328003,374.987640 313.475952,378.710938 
	C313.398621,378.487335 313.321289,378.263733 313.243958,378.040131 
	C321.826019,367.155212 330.660797,356.456665 338.883423,345.306671 
	C342.987579,339.741394 345.972412,333.350647 349.764679,327.170197 
z"/>
<path fill="#06A170" opacity="1.000000" stroke="none" 
	d="
M134.857574,284.713989 
	C129.365646,280.167572 123.937180,275.220612 118.199036,270.130096 
	C117.537338,266.331207 117.185318,262.675873 116.833298,259.020569 
	C117.268623,258.881012 117.703957,258.741425 118.139290,258.601868 
	C124.336716,266.759155 134.710419,272.056854 134.857574,284.713989 
z"/>
<path fill="#04A679" opacity="1.000000" stroke="none" 
	d="
M381.019165,270.575684 
	C375.885193,275.333496 370.814667,279.636322 365.402344,283.987915 
	C364.772980,278.051758 365.647705,272.793365 371.140320,268.833740 
	C374.539307,266.383392 377.016235,262.654053 381.082581,259.731140 
	C381.082581,263.194336 381.082581,266.657532 381.019165,270.575684 
z"/>
<path fill="#0CCE98" opacity="1.000000" stroke="none" 
	d="
M328.355164,367.370819 
	C330.146881,364.471222 332.261627,361.401367 334.658356,358.158630 
	C335.793121,358.328217 336.645935,358.670685 337.834778,359.103943 
	C335.006592,361.863403 331.842377,364.532013 328.355164,367.370819 
z"/>
<path fill="#0CCE98" opacity="1.000000" stroke="none" 
	d="
M339.392700,358.169403 
	C339.493530,357.831879 339.871796,357.438049 340.528595,356.983246 
	C340.428101,357.319183 340.049133,357.716125 339.392700,358.169403 
z"/>
<path fill="#0CCE98" opacity="1.000000" stroke="none" 
	d="
M341.179199,356.691162 
	C341.190399,356.322479 341.456970,355.835541 341.997162,355.253174 
	C341.992065,355.629486 341.713318,356.101196 341.179199,356.691162 
z"/>
<path fill="#099D75" opacity="1.000000" stroke="none" 
	d="
M185.099915,376.888977 
	C185.279129,377.051514 185.458344,377.214020 185.637558,377.376526 
	C185.431656,377.414795 185.225739,377.453094 184.998352,377.254333 
	C184.976868,377.017303 185.099915,376.888977 185.099915,376.888977 
z"/>
<path fill="#06A477" opacity="1.000000" stroke="none" 
	d="
M106.543457,111.502518 
	C106.565536,111.553154 106.521378,111.451874 106.543457,111.502518 
z"/>
<path fill="#099D75" opacity="1.000000" stroke="none" 
	d="
M184.058975,375.951141 
	C184.499634,375.954407 184.741196,376.163147 185.011749,376.664673 
	C185.099915,376.888977 184.976868,377.017303 184.912170,377.081970 
	C184.519470,377.083282 184.227966,376.943695 183.808228,376.547180 
	C183.643524,376.366455 183.919067,376.088135 184.058975,375.951141 
z"/>
<path fill="#04DD9C" opacity="1.000000" stroke="none" 
	d="
M168.922043,365.363647 
	C169.222839,365.323334 169.511627,365.629242 169.894775,366.245880 
	C169.629440,366.274384 169.269745,365.992126 168.922043,365.363647 
z"/>
<path fill="#0CCE98" opacity="1.000000" stroke="none" 
	d="
M338.370544,359.104126 
	C338.303467,358.893219 338.499359,358.602631 338.946198,358.214233 
	C339.009277,358.419098 338.821411,358.721802 338.370544,359.104126 
z"/>
<path fill="#0CCE98" opacity="1.000000" stroke="none" 
	d="
M342.430176,355.158630 
	C342.351898,354.939270 342.536652,354.638428 342.979309,354.247620 
	C343.055878,354.464172 342.874512,354.770660 342.430176,355.158630 
z"/>
<path fill="#0CCE98" opacity="1.000000" stroke="none" 
	d="
M343.417542,354.128723 
	C343.343781,353.915009 343.535431,353.606628 343.980652,353.184875 
	C344.050476,353.392365 343.866699,353.713257 343.417542,354.128723 
z"/>
<path fill="#05A578" opacity="1.000000" stroke="none" 
	d="
M288.770691,321.150635 
	C288.955780,321.399017 288.806213,321.654449 288.336182,321.935059 
	C288.135101,321.688812 288.275238,321.421265 288.770691,321.150635 
z"/>
<path fill="#05A578" opacity="1.000000" stroke="none" 
	d="
M289.742920,320.109802 
	C289.926514,320.368500 289.768707,320.624847 289.285645,320.899353 
	C289.071869,320.636047 289.218903,320.366028 289.742920,320.109802 
z"/>
<path fill="#05A578" opacity="1.000000" stroke="none" 
	d="
M290.739471,319.080933 
	C290.928284,319.347595 290.765442,319.610443 290.263489,319.885986 
	C290.055298,319.618042 290.209778,319.344238 290.739471,319.080933 
z"/>
<path fill="#05A578" opacity="1.000000" stroke="none" 
	d="
M291.710175,318.044922 
	C291.910126,318.317139 291.747803,318.590271 291.236084,318.881470 
	C291.163513,318.688110 291.317261,318.403564 291.710175,318.044922 
z"/>
<path fill="#05A578" opacity="1.000000" stroke="none" 
	d="
M292.729492,317.049500 
	C292.923950,317.340271 292.746094,317.609161 292.206482,317.872253 
	C292.141388,317.670166 292.312195,317.390564 292.729492,317.049500 
z"/>
<path fill="#043735" opacity="1.000000" stroke="none" 
	d="
M323.510559,183.166138 
	C346.825134,191.959290 350.114563,214.781876 341.342163,230.098450 
	C334.758331,241.593781 321.450775,246.885101 308.318329,244.190002 
	C295.721863,241.604904 286.132874,231.577362 284.080383,218.843536 
	C281.985077,205.844009 288.509583,192.400070 300.031189,185.972794 
	C307.336243,181.897690 315.032196,180.905151 323.510559,183.166138 
M324.398499,208.788376 
	C326.515625,202.618454 324.847748,197.564819 319.960876,195.342422 
	C315.137878,193.149078 309.084869,195.057114 306.576477,199.561447 
	C304.149475,203.919678 305.805145,209.664474 310.319641,212.549530 
	C315.097961,215.603119 320.496429,214.387970 324.398499,208.788376 
z"/>
<path fill="#043735" opacity="1.000000" stroke="none" 
	d="
M211.205612,229.056305 
	C202.655014,244.885773 181.365524,250.881577 164.388733,238.348801 
	C153.496109,230.307541 150.005386,213.234314 155.952560,200.272293 
	C161.981201,187.132690 175.549438,179.860046 189.385086,182.352310 
	C210.702438,186.192276 221.102051,208.120697 211.205612,229.056305 
M190.071152,213.920380 
	C197.521286,214.234344 201.828552,210.879486 202.068359,204.575928 
	C202.275421,199.132889 198.064804,194.679977 192.537613,194.496735 
	C188.078445,194.348923 183.585068,197.664398 182.453903,201.937088 
	C181.196213,206.687744 183.533508,210.714203 190.071152,213.920380 
z"/>
<path fill="#F6F9F9" opacity="1.000000" stroke="none" 
	d="
M324.219879,209.124664 
	C320.496429,214.387970 315.097961,215.603119 310.319641,212.549530 
	C305.805145,209.664474 304.149475,203.919678 306.576477,199.561447 
	C309.084869,195.057114 315.137878,193.149078 319.960876,195.342422 
	C324.847748,197.564819 326.515625,202.618454 324.219879,209.124664 
z"/>
<path fill="#F8FAFA" opacity="1.000000" stroke="none" 
	d="
M189.683258,213.821609 
	C183.533508,210.714203 181.196213,206.687744 182.453903,201.937088 
	C183.585068,197.664398 188.078445,194.348923 192.537613,194.496735 
	C198.064804,194.679977 202.275421,199.132889 202.068359,204.575928 
	C201.828552,210.879486 197.521286,214.234344 189.683258,213.821609 
z"/>
</svg>